Coordinates
version=1
nRows=5
nColumns=40
inDegrees=yes

Units are S.I. units (second, meters, Newtons, ...)
If the header above contains a line with 'inDegrees', this indicates whether rotational values are in degrees (yes) or radians (no).

endheader
time	pelvis_tilt	pelvis_list	pelvis_rotation	pelvis_tx	pelvis_ty	pelvis_tz	hip_flexion_r	hip_adduction_r	hip_rotation_r	knee_angle_r	knee_angle_r_beta	ankle_angle_r	subtalar_angle_r	mtp_angle_r	hip_flexion_l	hip_adduction_l	hip_rotation_l	knee_angle_l	knee_angle_l_beta	ankle_angle_l	subtalar_angle_l	mtp_angle_l	lumbar_extension	lumbar_bending	lumbar_rotation	arm_flex_r	arm_add_r	arm_rot_r	elbow_flex_r	pro_sup_r	wrist_flex_r	wrist_dev_r	arm_flex_l	arm_add_l	arm_rot_l	elbow_flex_l	pro_sup_l	wrist_flex_l	wrist_dev_l
      9.50000000	     25.61355097	     -0.84077460	    179.26088611	      0.37894221	      0.87690297	     -0.57336872	     67.90247762	     -9.81888657	     -0.39328055	     50.80888206	      0.88678228	     11.56354207	      0.00000000	      0.00000000	     66.82479792	     -8.85343803	     -3.89162369	     51.99325867	      0.90745355	      9.29040602	      0.00000000	      0.00000000	    -46.68139747	      0.35201467	     -3.75081143	     56.73112080	     -8.41064759	     27.26053463	     18.76471845	     88.30009524	      0.00000000	      0.00000000	     49.66286270	    -16.13380379	     22.06252318	     28.06999575	     88.20898903	      0.00000000	      0.00000000
      9.50500000	     25.53584531	     -0.88795721	    179.08522379	      0.37839204	      0.87760534	     -0.57376050	     67.76912924	     -9.65849190	     -0.30989113	     50.72963178	      0.88539910	     11.45541771	      0.00000000	      0.00000000	     66.65193571	     -9.00153279	     -3.96409529	     51.98903942	      0.90737991	      9.30574524	      0.00000000	      0.00000000	    -46.44210140	      0.16077338	     -3.65659755	     56.46007677	     -8.37565527	     27.30551491	     18.65840912	     88.30757721	      0.00000000	      0.00000000	     49.43706402	    -16.11404643	     22.10344938	     27.98397017	     88.21482933	      0.00000000	      0.00000000
      9.51000000	     25.52879641	     -0.92740101	    179.14398233	      0.37792573	      0.87850361	     -0.57329380	     67.57206942	     -9.70921148	     -0.24163948	     50.46087986	      0.88070850	     11.51353986	      0.00000000	      0.00000000	     66.50082145	     -8.99030634	     -4.27594415	     51.79999459	      0.90408046	      9.26329723	      0.00000000	      0.00000000	    -46.13926578	      0.20233699	     -3.74295491	     56.25914857	     -8.32365375	     27.39824263	     18.53868287	     88.30345542	      0.00000000	      0.00000000	     49.21564611	    -16.04296489	     22.27197873	     27.76541459	     88.22700622	      0.00000000	      0.00000000
      9.51500000	     25.06120535	     -1.48429246	    179.16940332	      0.37695755	      0.88073616	     -0.57288225	     66.99533724	    -10.09513278	      0.11814638	     50.24327680	      0.87691061	     11.56502002	      0.00000000	      0.00000000	     65.53531326	     -8.52125023	     -4.66973781	     51.26011630	      0.89465780	      9.12433110	      0.00000000	      0.00000000	    -46.38718585	     -0.24132571	     -4.18277420	     56.17391392	     -8.30355485	     28.01865316	     18.40074719	     88.28285436	      0.00000000	      0.00000000	     49.34573587	    -16.48495749	     24.05709357	     27.68463019	     88.21354780	      0.00000000	      0.00000000
      9.52000000	     25.04897022	     -1.50776672	    179.08620531	      0.37651103	      0.88132480	     -0.57286938	     66.84140914	    -10.02095945	      0.16094828	     50.03214987	      0.87322575	     11.59519776	      0.00000000	      0.00000000	     65.40772734	     -8.59984738	     -4.83024746	     51.17048977	      0.89309353	      9.18207769	      0.00000000	      0.00000000	    -46.04437339	     -0.31332256	     -4.14348096	     55.89806110	     -8.26601394	     28.06303932	     18.29241561	     88.28609028	      0.00000000	      0.00000000	     49.08198312	    -16.45036168	     24.15794425	     27.55239721	     88.21487401	      0.00000000	      0.00000000
